<svg width="600" height="400" viewBox="0 0 600 400" fill="none" xmlns="http://www.w3.org/2000/svg">
  <!-- Background shape -->
  <path d="M100 320C100 320 150 250 300 250C450 250 500 320 500 320V400H100V320Z" fill="#E6F7FF" />
  
  <!-- Clouds -->
  <path d="M150 120C150 126.627 144.627 132 138 132C131.373 132 126 126.627 126 120C126 113.373 131.373 108 138 108C144.627 108 150 113.373 150 120Z" fill="#E6F7FF" />
  <path d="M162 120H138C131.373 120 126 114.627 126 108C126 101.373 131.373 96 138 96H162C168.627 96 174 101.373 174 108C174 114.627 168.627 120 162 120Z" fill="#E6F7FF" />
  
  <path d="M500 150C500 156.627 494.627 162 488 162C481.373 162 476 156.627 476 150C476 143.373 481.373 138 488 138C494.627 138 500 143.373 500 150Z" fill="#E6F7FF" />
  <path d="M512 150H488C481.373 150 476 144.627 476 138C476 131.373 481.373 126 488 126H512C518.627 126 524 131.373 524 138C524 144.627 518.627 150 512 150Z" fill="#E6F7FF" />
  
  <path d="M400 100C400 106.627 394.627 112 388 112C381.373 112 376 106.627 376 100C376 93.373 381.373 88 388 88C394.627 88 400 93.373 400 100Z" fill="#E6F7FF" />
  <path d="M412 100H388C381.373 100 376 94.627 376 88C376 81.373 381.373 76 388 76H412C418.627 76 424 81.373 424 88C424 94.627 418.627 100 412 100Z" fill="#E6F7FF" />
  
  <!-- Sun -->
  <circle cx="80" cy="80" r="30" fill="#FFCC4D" />
  <circle cx="80" cy="80" r="24" fill="#FFDB7D" />
  
  <!-- Plant -->
  <rect x="120" y="320" width="30" height="40" rx="4" fill="#FFCC4D" />
  <path d="M135 280C135 280 120 300 120 320H150C150 300 135 280 135 280Z" fill="#4CCEEB" />
  <path d="M135 290C135 290 150 310 160 320H120C130 310 135 290 135 290Z" fill="#4CCEEB" />
  
  <!-- Browser window with 404 -->
  <g transform="translate(250 100) rotate(-10)">
    <!-- Window -->
    <rect width="240" height="160" rx="8" fill="#E6F7FF" stroke="#0F5B6D" stroke-width="4" />
    <!-- Header -->
    <rect width="240" height="30" rx="8" fill="#0F5B6D" />
    <!-- Buttons -->
    <circle cx="20" cy="15" r="5" fill="#FFCC4D" />
    <circle cx="40" cy="15" r="5" fill="#FFFFFF" />
    
    <!-- 404 Text -->
    <text x="70" y="110" font-family="Arial" font-size="80" font-weight="bold" fill="#4CCEEB">404</text>
  </g>
  
  <!-- Barrier -->
  <rect x="200" y="300" width="200" height="30" rx="4" fill="#FFCC4D" stroke="#0F5B6D" stroke-width="4" />
  <rect x="210" y="310" width="20" height="10" fill="#0F5B6D" />
  <rect x="240" y="310" width="20" height="10" fill="#0F5B6D" />
  <rect x="270" y="310" width="20" height="10" fill="#0F5B6D" />
  <rect x="300" y="310" width="20" height="10" fill="#0F5B6D" />
  <rect x="330" y="310" width="20" height="10" fill="#0F5B6D" />
  <rect x="360" y="310" width="20" height="10" fill="#0F5B6D" />
  
  <!-- Traffic cone -->
  <path d="M450 340L470 340L460 300L450 340Z" fill="#FFCC4D" stroke="#0F5B6D" stroke-width="2" />
  <rect x="445" y="340" width="30" height="10" rx="2" fill="#0F5B6D" />
  <rect x="450" y="325" width="20" height="3" fill="#0F5B6D" />
  <rect x="452" y="315" width="16" height="3" fill="#0F5B6D" />
  
  <!-- Person -->
  <g transform="translate(180, 260)">
    <!-- Head -->
    <circle cx="15" cy="15" r="15" fill="#FFD7A3" />
    
    <!-- Body -->
    <rect x="5" y="30" width="20" height="40" rx="8" fill="#FFCC4D" />
    
    <!-- Arms -->
    <rect x="25" y="30" width="25" height="10" rx="5" fill="#FFCC4D" />
    <rect x="25" y="30" width="10" height="25" rx="5" fill="#FFCC4D" />
    
    <rect x="-20" y="35" width="25" height="8" rx="4" fill="#FFCC4D" />
    
    <!-- Legs -->
    <rect x="5" y="70" width="8" height="30" rx="4" fill="#0F5B6D" />
    <rect x="17" y="70" width="8" height="30" rx="4" fill="#0F5B6D" />
    
    <!-- Face -->
    <circle cx="10" cy="12" r="2" fill="#0F5B6D" />
    <circle cx="20" cy="12" r="2" fill="#0F5B6D" />
    <path d="M10 20C10 20 15 22 20 20" stroke="#0F5B6D" stroke-width="1.5" stroke-linecap="round" />
    
    <!-- Speech bubble -->
    <g transform="translate(40, 0)">
      <circle cx="0" cy="15" r="10" fill="#0F5B6D" />
      <circle cx="-3" cy="15" r="1" fill="white" />
      <circle cx="0" cy="15" r="1" fill="white" />
      <circle cx="3" cy="15" r="1" fill="white" />
    </g>
  </g>
</svg>
