<svg width="14" height="14" viewBox="0 0 14 14" fill="none" xmlns="http://www.w3.org/2000/svg">
<path d="M12.8719 5.48923C12.6457 5.25283 12.4117 5.00923 12.3235 4.79503C12.2419 4.59883 12.2371 4.27363 12.2323 3.95863C12.2233 3.37303 12.2137 2.70943 11.7523 2.24803C11.2909 1.78663 10.6273 1.77703 10.0417 1.76803C9.72667 1.76323 9.40147 1.75843 9.20527 1.67683C8.99167 1.58863 8.74747 1.35463 8.51107 1.12843C8.09707 0.730629 7.62667 0.280029 7.00027 0.280029C6.37387 0.280029 5.90407 0.730629 5.48947 1.12843C5.25307 1.35463 5.00947 1.58863 4.79527 1.67683C4.60027 1.75843 4.27387 1.76323 3.95887 1.76803C3.37327 1.77703 2.70967 1.78663 2.24827 2.24803C1.78687 2.70943 1.78027 3.37303 1.76827 3.95863C1.76347 4.27363 1.75867 4.59883 1.67707 4.79503C1.58887 5.00863 1.35487 5.25283 1.12867 5.48923C0.730873 5.90323 0.280273 6.37363 0.280273 7.00003C0.280273 7.62643 0.730873 8.09623 1.12867 8.51083C1.35487 8.74723 1.58887 8.99083 1.67707 9.20503C1.75867 9.40123 1.76347 9.72643 1.76827 10.0414C1.77727 10.627 1.78687 11.2906 2.24827 11.752C2.70967 12.2134 3.37327 12.223 3.95887 12.232C4.27387 12.2368 4.59907 12.2416 4.79527 12.3232C5.00887 12.4114 5.25307 12.6454 5.48947 12.8716C5.90347 13.2694 6.37387 13.72 7.00027 13.72C7.62667 13.72 8.09647 13.2694 8.51107 12.8716C8.74747 12.6454 8.99107 12.4114 9.20527 12.3232C9.40147 12.2416 9.72667 12.2368 10.0417 12.232C10.6273 12.223 11.2909 12.2134 11.7523 11.752C12.2137 11.2906 12.2233 10.627 12.2323 10.0414C12.2371 9.72643 12.2419 9.40123 12.3235 9.20503C12.4117 8.99143 12.6457 8.74723 12.8719 8.51083C13.2697 8.09683 13.7203 7.62643 13.7203 7.00003C13.7203 6.37363 13.2697 5.90383 12.8719 5.48923ZM9.73987 5.89963L6.37987 9.25963C6.28984 9.34976 6.16767 9.40041 6.04027 9.40041C5.91288 9.40041 5.79071 9.34976 5.70067 9.25963L4.26067 7.81963C4.07312 7.63207 4.07312 7.32798 4.26067 7.14043C4.44823 6.95287 4.75232 6.95287 4.93987 7.14043L6.04027 8.24143L9.06067 5.22043C9.24823 5.03287 9.55232 5.03287 9.73987 5.22043C9.92743 5.40798 9.92743 5.71207 9.73987 5.89963Z" fill="#1DD75B"/>
</svg>
