<svg width="14" height="14" viewBox="0 0 14 14" fill="none" xmlns="http://www.w3.org/2000/svg">
<path opacity="0.2" d="M12.9605 6.71998C12.9605 7.47058 11.8913 8.03698 11.5997 8.74138C11.3189 9.42058 11.6849 10.5798 11.1329 11.1324C10.5809 11.685 9.42107 11.3184 8.74187 11.5992C8.04047 11.8908 7.47047 12.96 6.72047 12.96C5.97047 12.96 5.40047 11.8908 4.69907 11.5992C4.01987 11.3184 2.86067 11.6844 2.30807 11.1324C1.75547 10.5804 2.12207 9.42058 1.84127 8.74138C1.54967 8.03998 0.480469 7.46998 0.480469 6.71998C0.480469 5.96998 1.54967 5.39998 1.84127 4.69858C2.12207 4.01998 1.75607 2.86018 2.30807 2.30758C2.86007 1.75498 4.02047 2.12158 4.69907 1.84078C5.40347 1.54918 5.97047 0.47998 6.72047 0.47998C7.47047 0.47998 8.04047 1.54918 8.74187 1.84078C9.42107 2.12158 10.5803 1.75558 11.1329 2.30758C11.6855 2.85958 11.3189 4.01938 11.5997 4.69858C11.8913 5.40298 12.9605 5.96998 12.9605 6.71998Z" fill="#DE3B40"/>
<path d="M12.5916 5.2092C12.3654 4.9728 12.1314 4.7292 12.0432 4.515C11.9616 4.3188 11.9568 3.9936 11.952 3.6786C11.943 3.093 11.9334 2.4294 11.472 1.968C11.0106 1.5066 10.347 1.497 9.7614 1.488C9.4464 1.4832 9.1212 1.4784 8.925 1.3968C8.7108 1.3086 8.4672 1.0746 8.2308 0.8484C7.8162 0.4506 7.3464 0 6.72 0C6.0936 0 5.6238 0.4506 5.2092 0.8484C4.9728 1.0746 4.7292 1.3086 4.515 1.3968C4.32 1.4784 3.9936 1.4832 3.6786 1.488C3.093 1.497 2.4294 1.5066 1.968 1.968C1.5066 2.4294 1.5 3.093 1.488 3.6786C1.4832 3.9936 1.4784 4.3188 1.3968 4.515C1.3086 4.7292 1.0746 4.9728 0.8484 5.2092C0.4506 5.6238 0 6.0936 0 6.72C0 7.3464 0.4506 7.8162 0.8484 8.2308C1.0746 8.4672 1.3086 8.7108 1.3968 8.925C1.4784 9.1212 1.4832 9.4464 1.488 9.7614C1.497 10.347 1.5066 11.0106 1.968 11.472C2.4294 11.9334 3.093 11.943 3.6786 11.952C3.9936 11.9568 4.3188 11.9616 4.515 12.0432C4.7292 12.1314 4.9728 12.3654 5.2092 12.5916C5.6238 12.9894 6.0936 13.44 6.72 13.44C7.3464 13.44 7.8162 12.9894 8.2308 12.5916C8.4672 12.3654 8.7108 12.1314 8.925 12.0432C9.1212 11.9616 9.4464 11.9568 9.7614 11.952C10.347 11.943 11.0106 11.9334 11.472 11.472C11.9334 11.0106 11.943 10.347 11.952 9.7614C11.9568 9.4464 11.9616 9.1212 12.0432 8.925C12.1314 8.7108 12.3654 8.4672 12.5916 8.2308C12.9894 7.8162 13.44 7.3464 13.44 6.72C13.44 6.0936 12.9894 5.6238 12.5916 5.2092ZM11.8986 7.5666C11.6112 7.8666 11.3136 8.1768 11.1558 8.5578C11.0046 8.9238 10.998 9.342 10.992 9.747C10.986 10.167 10.9794 10.6068 10.7928 10.7928C10.6062 10.9788 10.1694 10.986 9.747 10.992C9.342 10.998 8.9238 11.0046 8.5578 11.1558C8.1768 11.3136 7.8666 11.6112 7.5666 11.8986C7.2666 12.186 6.96 12.48 6.72 12.48C6.48 12.48 6.1716 12.1848 5.8734 11.8986C5.5752 11.6124 5.2632 11.3136 4.8822 11.1558C4.5162 11.0046 4.098 10.998 3.693 10.992C3.273 10.986 2.8332 10.9794 2.6472 10.7928C2.4606 10.6068 2.454 10.1694 2.448 9.747C2.442 9.342 2.4354 8.9238 2.2842 8.5578C2.1264 8.1768 1.8288 7.8666 1.5414 7.5666C1.254 7.2666 0.96 6.96 0.96 6.72C0.96 6.48 1.2552 6.1716 1.5414 5.8734C1.8276 5.5752 2.1264 5.2632 2.2842 4.8822C2.4354 4.5162 2.442 4.098 2.448 3.693C2.454 3.273 2.4606 2.8332 2.6472 2.6472C2.8338 2.4612 3.2706 2.454 3.693 2.448C4.098 2.442 4.5162 2.4354 4.8822 2.2842C5.2632 2.1264 5.5734 1.8288 5.8734 1.5414C6.1734 1.254 6.48 0.96 6.72 0.96C6.96 0.96 7.2684 1.2552 7.5666 1.5414C7.8648 1.8276 8.1768 2.1264 8.5578 2.2842C8.9238 2.4354 9.342 2.442 9.747 2.448C10.167 2.454 10.6068 2.4606 10.7928 2.6472C10.9788 2.8338 10.986 3.2706 10.992 3.693C10.998 4.098 11.0046 4.5162 11.1558 4.8822C11.3136 5.2632 11.6112 5.5734 11.8986 5.8734C12.186 6.1734 12.48 6.48 12.48 6.72C12.48 6.96 12.1848 7.2684 11.8986 7.5666Z" fill="#DE3B40"/>
</svg>
